<?xml version="1.0" encoding="UTF-8" standalone="no"?>
<!-- Created with Inkscape (http://www.inkscape.org/) -->

<svg
   width="229.32524"
   height="467.62741"
   viewBox="0 0 60.675638 123.72642"
   version="1.1"
   id="svg1"
   inkscape:export-filename="si_дистопизм.svg"
   inkscape:export-xdpi="96"
   inkscape:export-ydpi="96"
   xmlns:inkscape="http://www.inkscape.org/namespaces/inkscape"
   xmlns:sodipodi="http://sodipodi.sourceforge.net/DTD/sodipodi-0.dtd"
   xmlns="http://www.w3.org/2000/svg"
   xmlns:svg="http://www.w3.org/2000/svg">
  <sodipodi:namedview
     id="namedview1"
     pagecolor="#505050"
     bordercolor="#ffffff"
     borderopacity="1"
     inkscape:showpageshadow="0"
     inkscape:pageopacity="0"
     inkscape:pagecheckerboard="1"
     inkscape:deskcolor="#505050"
     inkscape:document-units="mm"
     inkscape:export-bgcolor="#ffffff00">
    <inkscape:page
       x="0"
       y="0"
       width="60.675636"
       height="123.72642"
       id="page2"
       margin="0"
       bleed="0" />
  </sodipodi:namedview>
  <defs
     id="defs1" />
  <g
     inkscape:label="si_distopizm"
     inkscape:groupmode="layer"
     id="layer1"
     transform="translate(-33.682464,-5.3890925)">
    <g
       id="g21"
       transform="matrix(0.48310074,0,0,0.40558645,39.635849,54.198712)"
       style="stroke-width:1.51782;stroke-dasharray:none">
      <path
         style="fill:#f2f2f2;stroke:#000000;stroke-width:1.42838;stroke-dasharray:none"
         id="path16"
         d="m 63.776101,74.990284 c 0.230488,2.393726 0.549734,4.767487 0.691462,7.181177 0.200877,3.42107 0.282994,6.86166 0.334917,10.29868 0.113506,7.51334 -0.06176,18.484949 -0.148293,25.880369 -0.241867,20.67142 -0.113332,7.71527 -0.293868,28.36491 -0.213701,16.84034 -0.108413,8.65262 -0.315416,24.5631 l 2.411178,13.22451 4.430659,-14.45776 c 0,0 -1.731331,-4.22195 -1.80627,-21.3275 0.04181,-4.71798 -0.270566,-7.60805 -0.198777,-12.32499 0.200033,-13.14313 0.695399,-26.25646 1.154696,-39.377839 0.114067,-3.25872 0.204072,-6.52 0.33479,-9.77691 0.0857,-2.1354 0.209627,-4.26584 0.314443,-6.39874 z"
         sodipodi:nodetypes="cssscccscssscc" />
      <path
         d="m 103.00438,14.595241 c -0.34772,0.180905 -0.74443,0.391825 -1.09331,0.544299 -2.275593,0.994532 -4.686888,1.613275 -7.07588,2.265125 -6.136732,1.501929 -12.345393,2.906043 -18.690418,3.053834 -1.039182,0.09272 -2.077197,0.20177 -3.117686,0.278431 -6.923513,0.510111 -13.870996,0.505816 -20.807951,0.367403 -6.081063,-0.193398 -3.174654,-0.06775 -9.21489,-0.393047 -1.39714,-0.07524 -2.796521,-0.113549 -4.191108,-0.226618 -3.7279,-0.302247 -7.423464,-0.892567 -11.128837,-1.38116 -2.490027,-0.446094 -4.978384,-0.900895 -7.446438,-1.459142 -2.024492,-0.45792 -0.763971,-0.204758 -2.414284,-0.624375 -0.195382,-0.04968 -0.393943,-0.08617 -0.59088,-0.129271 l 8.809806,6.513802 c 1.162815,0.05922 2.324798,0.131992 3.487181,0.199926 0.674385,0.03942 1.349911,0.06245 2.023855,0.10886 0.860656,0.05927 1.719761,0.138433 2.579666,0.207776 3.185677,0.323684 2.840097,0.344271 6.183036,0.440673 1.28088,0.03694 2.562757,0.02181 3.843593,0.06019 1.38186,0.0414 2.761519,0.141154 4.143482,0.178991 1.443625,0.03953 2.888366,0.0344 4.332415,0.05286 1.509678,0.0193 3.019013,0.04055 4.52868,0.06071 1.526381,0.02349 3.053107,0.044 4.579444,0.07013 1.50012,0.02569 2.999617,0.07169 4.499894,0.08531 1.463464,0.01329 2.926985,-0.0047 4.390511,-0.0042 3.868029,0.0011 7.73603,-0.01559 11.604052,-0.01937 4.54051,-0.571854 9.096826,-1.042616 13.619529,-1.749609 1.139353,-0.178106 1.972563,-0.323016 2.792676,-0.476261 -0.888433,1.184821 -1.796947,2.35461 -2.677537,3.545275 -0.58899,0.796391 -1.199012,1.578842 -1.746469,2.404339 -0.707164,1.066329 -1.363636,2.166038 -2.014955,3.267368 -1.054386,1.782876 -2.69196,3.980597 -3.876643,5.679689 -1.397596,2.004465 -3.375844,4.089337 -4.916095,5.98638 -5.261038,5.494254 -4.344263,5.224634 -9.95577,10.434594 -1.962129,1.821722 -3.970645,3.593157 -5.970026,5.373913 -2.150299,1.915173 -4.263383,3.874047 -6.478736,5.713578 -5.783394,4.802263 -8.181719,6.320256 -14.303048,10.647345 -6.218262,3.988802 -7.562565,5.009542 -13.913137,8.487412 -2.06097,1.12868 -4.173096,2.16194 -6.264682,3.23282 -2.060328,1.05489 -4.087916,2.17731 -6.190886,3.14438 -5.120441,2.35469 -7.189588,2.90508 -12.4513794,4.6836 -4.600583,1.26376 -6.088076,1.76922 -10.649957,2.66706 -1.457317,0.28682 -2.925922,0.51747 -4.395744,0.73115 -1.219771,0.17733 -2.447115,0.29448 -3.6708816,0.44172 l 4.6507746,5.566039 c 5.44537396,-1.7218 10.907962,-2.95177 16.156281,-5.223219 4.0962634,-1.73601 8.7781034,-3.66517 12.8268094,-5.54864 2.130191,-0.99097 4.227953,-2.09482 6.267265,-3.26143 1.929384,-1.10372 4.373462,-2.37782 6.200598,-3.64364 3.371421,-2.33567 8.699914,-6.20731 11.920823,-8.54311 6.549808,-4.801762 7.57121,-5.244828 14.13624,-10.119858 2.38021,-1.76748 5.330931,-4.277193 7.646591,-6.128435 2.107149,-1.68454 4.376651,-3.930178 6.38857,-5.727378 3.599997,-3.215792 7.744016,-6.997344 11.237599,-10.334174 4.039611,-3.644195 4.899796,-4.971249 11.521551,-10.720278 3.027656,-2.628616 5.497966,-6.138465 8.364946,-9.097654 0.56398,-0.584074 1.11329,-1.182812 1.69204,-1.752228 1.61285,-1.586814 2.089,-2.039487 2.10392,-2.034319 0.008,0.03612 -2.15116,2.223366 0.59245,-0.513945 0.2765,-0.275862 0.56564,-0.541228 0.81279,-0.843665 0.2684,-0.328425 1.06793,-0.788019 0.72904,-1.043067 -2.90448,-2.185893 -6.27892,-3.664605 -9.41848,-5.496903 z"
         style="fill:#f2f2f2;stroke:#000000;stroke-width:1.5372;stroke-dasharray:none"
         id="path21"
         sodipodi:nodetypes="ssccscsscssccsscsssscssccscsssscssscssscsscccssscssscscscsssss" />
      <path
         style="fill:#f2f2f2;stroke:#000000;stroke-width:1.5372;stroke-dasharray:none"
         id="path15"
         d="m 16.231572,23.884954 c 0.210274,0.449272 0.376543,0.828119 0.65175,1.264333 0.301122,0.477298 0.635106,0.933054 0.953758,1.39883 0.445954,0.651856 0.892573,1.303257 1.340057,1.954061 1.336722,1.944088 2.67626,3.886241 4.01361,5.829896 3.495039,5.338101 7.373447,10.406871 10.903904,15.721793 1.345624,2.02577 2.61676,4.100045 3.92514,6.150065 0,0 5.036873,2.216663 5.036873,2.216663 v 0 C 40.042003,53.666426 38.408847,51.197951 35.606593,46.367037 34.659776,44.734787 33.778203,43.065551 32.861198,41.416371 32.167367,40.168556 31.46979,38.922826 30.774086,37.676054 29.66521,35.690439 28.873484,34.311213 27.84661,32.344815 26.980556,30.686382 27.123219,30.940606 26.494035,29.49717 c -0.08182,-0.187719 -0.181366,-0.368481 -0.247379,-0.562328 -0.03464,-0.101732 -0.03496,-0.212073 -0.05244,-0.318112 z" />
      <path
         style="fill:#f2f2f2;stroke:#000000;stroke-width:1.24562;stroke-dasharray:none"
         id="path17"
         d="m 72.879421,-119.29595 c -0.0556,0.44662 -0.128205,0.89145 -0.166756,1.33986 -0.130053,1.5128 -0.394598,6.11499 -0.391221,7.1798 0.0079,2.47675 0.158278,4.951 0.235068,7.42657 0.813749,26.234514 -0.3003,-9.26011 0.581703,18.760741 0.222234,11.796601 1.134832,23.566723 1.412321,35.361418 0.102189,4.34361 0.130724,8.689346 0.100077,13.034051 -0.06955,9.859417 -0.303021,12.352089 -0.807259,21.783256 -0.523144,7.8446693 -1.300875,15.6744393 -2.448466,23.4528463 0,0 6.949381,4.2283197 6.949381,4.2283197 v 0 c 0.03444,-8.3498887 -0.07038,-16.6990397 -0.125623,-25.048731 -0.07739,-11.81042 -0.186605,-23.620362 -0.277391,-35.430643 -0.03329,-4.331333 -0.06273,-8.662722 -0.07506,-12.994166 -0.01103,-3.875405 0.03993,-7.751 0.005,-11.626265 -0.03024,-3.353049 -0.133691,-6.705037 -0.200538,-10.057556 -0.01762,-9.686223 -0.273438,-19.465161 1.627709,-29.019631 0.256573,-1.28944 0.627139,-2.49005 0.99432,-3.7373 z" />
      <path
         style="fill:#f2f2f2;stroke:#000000;stroke-width:1.24562;stroke-dasharray:none"
         id="path18"
         d="m 47.43046,-89.286938 c 0.0603,0.434475 0.135312,0.867405 0.180811,1.30345 0.317079,3.039102 0.07951,2.127653 0.540401,5.719096 0.530372,4.133056 1.337474,8.600209 2.01061,12.663051 0.570528,3.443516 1.134341,6.887984 1.701511,10.331976 0.606462,4.259644 1.287919,8.5106 1.819373,12.778932 0.553572,4.445853 0.973667,8.90537 1.435306,13.360386 1.197926,11.560449 1.925493,18.514421 2.69516,30.0989063 0.2906,4.373958 0.458073,8.754571 0.687118,13.1318567 0,0 3.835541,1.640077 3.835541,1.640077 v 0 C 60.962429,-1.8754037 60.789435,-2.5473597 59.820694,-16.68225 c -0.338446,-4.938252 -0.523461,-9.88551 -0.882487,-14.822459 -0.321455,-4.420147 -0.772534,-8.831046 -1.158795,-13.246569 -0.288985,-4.126349 -0.57797,-8.252697 -0.866946,-12.379047 -0.443558,-6.90074 -0.722217,-10.448558 -0.984057,-17.01582 -0.115511,-2.896688 -0.186473,-5.211552 -0.06394,-8.037298 0.06282,-1.448823 0.160065,-2.072676 0.323572,-3.379677 z" />
      <path
         style="fill:#f2f2f2;stroke:#000000;stroke-width:1.24562;stroke-dasharray:none"
         id="path19"
         d="m 93.554521,-79.83479 c 0.140399,0.91079 0.155369,0.779998 0.01343,2.151278 -0.670798,6.480595 -0.116065,-2.070304 -0.751563,6.534887 -0.340798,4.614669 -0.278888,5.969154 -0.350489,10.863082 -0.128175,11.036277 -0.550895,22.086014 -1.571068,33.101541 -0.537739,5.80635 -0.857184,7.807907 -1.602207,13.394541 -0.268348,1.749419 -0.535264,3.499088 -0.805044,5.2482603 -0.235933,1.529715 -0.491252,3.056153 -0.712088,4.588393 -0.186703,1.295436 -0.875095,6.692083 -1.069825,8.145072 -0.370848,2.767068 -0.467414,3.370974 -0.853907,5.9995517 0,0 5.48906,4.230841 5.48906,4.230841 v 0 c 0.293582,-3.38666 0.583806,-6.7757747 0.929687,-10.1578927 0.496413,-4.85431202 1.119069,-9.695104 1.571776,-14.5540683 0.183361,-2.131196 0.384308,-4.261149 0.550106,-6.393584 0.634233,-8.157105 1.064579,-16.323952 1.61723,-24.484873 0.190394,-2.811619 0.418316,-5.621176 0.62114,-8.43213 0.17215,-2.385766 0.335847,-4.771996 0.503763,-7.157996 0.198978,-2.728488 0.487949,-7.480144 0.890098,-10.350549 0.35634,-2.543488 0.692992,-3.752246 1.323687,-6.065674 0.143427,-0.526095 0.324154,-1.03962 0.448869,-1.571664 0.04194,-0.179062 0.0325,-0.367565 0.04875,-0.551341 z" />
      <path
         style="fill:#f2f2f2;stroke:#000000;stroke-width:1.24562;stroke-dasharray:none"
         id="path20"
         d="m 28.945438,-66.699671 c 0.584644,2.264334 0.833796,4.600161 1.320189,6.883348 0.483451,2.269365 1.072812,4.515176 1.565037,6.782655 1.662368,7.657845 2.039478,10.010725 3.488819,17.793386 1.433401,8.087566 2.772841,16.190969 4.170031,24.284786 0.394607,2.2859263 0.80446,4.5692813 1.182761,6.8579623 0.725263,4.38749598 1.012333,6.494406 1.630314,10.749188 0.616951,4.7115177 0.341019,2.510596 0.836816,6.6016277 l 6.53135,2.057109 2.68612,0.972926 c 0,0 -3.156378,-2.935583 -4.282231,-7.8156567 -0.912413,-4.1424 -1.495172,-6.731043 -2.37411,-10.985202 -0.47646,-2.306115 -0.925123,-4.617892 -1.394303,-6.925499 -1.65574,-8.1435703 -3.332983,-16.2833393 -4.774404,-24.4687083 -1.124552,-6.787674 -1.897676,-10.696335 -2.546589,-17.480155 -0.202832,-2.120422 -0.25248,-4.252728 -0.368978,-6.379638 -0.118304,-2.159821 -0.264151,-4.332487 -0.204614,-6.497145 z"
         sodipodi:nodetypes="csscsccccscsscsscc" />
    </g>
  </g>
</svg>
